PathFileType	4	(X/Y/Z)	3_coords_data.trc
DataRate	CameraRate	NumFrames	NumMarkers	Units	OrigDataRate	OrigDataStartFrame	OrigNumFrames
30.0	30.0	8	21	m	30.0	43	64
Frame#	Time	THUMB_TIP	THUMB_IP	THUMB_MCP	THUMB_CMC	INDEX_TIP	INDEX_DIP	INDEX_PIP	INDEX_MCP	MIDDLE_TIP	MIDDLE_DIP	MIDDLE_PIP	MIDDLE_MCP	RING_TIP	RING_DIP	RING_PIP	RING_MCP	PINKY_TIP	PINKY_DIP	PINKY_PIP	PINKY_MCP	WRIST
X1	Y1	Z1	X2	Y2	Z2	X3	Y3	Z3	X4	Y4	Z4	X5	Y5	Z5	X6	Y6	Z6	X7	Y7	Z7	X8	Y8	Z8	X9	Y9	Z9	X10	Y10	Z10	X11	Y11	Z11	X12	Y12	Z12	X13	Y13	Z13	X14	Y14	Z14	X15	Y15	Z15	X16	Y16	Z16	X17	Y17	Z17	X18	Y18	Z18	X19	Y19	Z19	X20	Y20	Z20	X21	Y21	Z21
42	1.4	-0.1596929931640625	-0.07707469940185546	0.900947998046875	-0.16579400634765626	-0.065872802734375	0.927093994140625	-0.17014100646972657	-0.05961690139770508	0.9581589965820313	-0.17035899353027345	-0.03769620132446289	0.9875609741210938	-0.13302499389648437	-0.03255970001220703	0.9489080200195312	-0.1324759979248047	-0.029940700531005858	0.92875	-0.15062399291992187	-0.031077600479125975	0.9120269775390625	-0.18596099853515624	-0.0380255012512207	0.9330440063476563	-0.13598100280761719	-0.020180999755859377	0.9589580078125	-0.13232699584960939	-0.013200300216674805	0.9382869873046875	-0.14991000366210938	-0.010077699661254883	0.9166619873046875	-0.19035000610351563	-0.015619600296020508	0.9335189819335937	-0.14571499633789062	-0.008286959648132324	0.968572021484375	-0.14163999938964844	0.0018243399858474732	0.9500430297851562	-0.1540570068359375	0.009552390098571777	0.9290339965820312	-0.19142999267578126	0.003474159955978393	0.942676025390625	-0.15146400451660155	0.001992769956588745	0.9714760131835938	-0.14800900268554687	0.013431300163269043	0.9588489990234375	-0.15977699279785157	0.02266119956970215	0.9460399780273437	-0.1897209930419922	0.019902000427246092	0.9537080078125	-0.1895189971923828	-0.016507200241088867	1.0146900024414063
43	1.4333333333333333	-0.16129600524902343	-0.07800160217285156	0.9015789794921875	-0.1665019989013672	-0.06627809906005859	0.9274619750976563	-0.1708699951171875	-0.05965999984741211	0.9584390258789063	-0.17079800415039062	-0.037647598266601565	0.9878590087890625	-0.1263489990234375	-0.030049299240112303	0.9385230102539063	-0.1317010040283203	-0.028825700759887694	0.9195869750976563	-0.1535290069580078	-0.030885000228881836	0.9072650146484375	-0.1859239959716797	-0.037371498107910156	0.9325659790039063	-0.1260800018310547	-0.016316200256347658	0.9478610229492187	-0.12851499938964844	-0.011072999954223632	0.9276619873046875	-0.15281599426269532	-0.01001360034942627	0.911697998046875	-0.1903820037841797	-0.015172800064086915	0.9330980224609375	-0.13641499328613282	-0.003906460046768188	0.9588679809570313	-0.13887399291992186	0.005498760223388672	0.9403729858398437	-0.1571060028076172	0.010824199676513671	0.922927001953125	-0.19054499816894532	0.003786900043487549	0.9424140014648438	-0.14391999816894532	0.004556149959564209	0.965448974609375	-0.14527499389648438	0.016297199249267577	0.9523499755859375	-0.15914999389648438	0.023878299713134765	0.9427849731445312	-0.18886900329589842	0.02043120002746582	0.9535020141601562	-0.18945500183105468	-0.016263999938964845	1.0150999755859376
44	1.4666666666666666	-0.1608769989013672	-0.07857240295410156	0.9023699951171875	-0.166072998046875	-0.06655719757080078	0.9280089721679687	-0.17097099304199218	-0.059282100677490235	0.9589749755859375	-0.17050399780273437	-0.03734769821166992	0.9885419921875	-0.11892500305175781	-0.02682159996032715	0.9232310180664063	-0.13181500244140626	-0.027573400497436524	0.9088839721679688	-0.155718994140625	-0.030518400192260743	0.9032020263671875	-0.18452200317382814	-0.03656320190429688	0.93214501953125	-0.11560800170898437	-0.011239700317382813	0.93064599609375	-0.12751300048828124	-0.008519060134887695	0.9146619873046875	-0.15576899719238282	-0.009224650382995605	0.9062210083007812	-0.18890400695800783	-0.014542200088500977	0.9335789794921875	-0.12866000366210936	0.002522459983825683	0.9437169799804688	-0.13739900207519531	0.009803330421447754	0.9271799926757812	-0.16138600158691407	0.012454999923706054	0.9164749755859375	-0.1897469940185547	0.00440291976928711	0.942427978515625	-0.13510000610351564	0.010472700119018555	0.9546209716796875	-0.14306399536132813	0.02075349998474121	0.944072998046875	-0.16070799255371093	0.026404300689697267	0.937927978515625	-0.18722700500488282	0.02099049949645996	0.9533569946289062	-0.18973300170898438	-0.016047199249267577	1.015239990234375
45	1.5	-0.1586199951171875	-0.07849520111083984	0.9030269775390625	-0.1644320068359375	-0.06629750061035156	0.928427001953125	-0.16938999938964844	-0.05882759857177734	0.95925	-0.17031700134277344	-0.037027999877929686	0.9887839965820312	-0.11417500305175782	-0.024469200134277343	0.9097239990234375	-0.13198800659179688	-0.02674640083312988	0.9004739990234375	-0.15596400451660156	-0.030208900451660158	0.90114501953125	-0.18174099731445312	-0.03607880020141602	0.93222998046875	-0.11025399780273437	-0.006297550201416016	0.9111420288085937	-0.1283699951171875	-0.005916150093078614	0.9015570068359375	-0.1568509979248047	-0.008297590255737305	0.9018679809570312	-0.18696099853515624	-0.014054200172424317	0.9332360229492187	-0.12336399841308594	0.008801420211791993	0.9274149780273437	-0.1379340057373047	0.013384200096130372	0.9154840087890626	-0.1642729949951172	0.013575499534606933	0.9115980224609375	-0.1882169952392578	0.004854320049285888	0.9418660278320312	-0.13100599670410157	0.01910650062561035	0.9406010131835938	-0.14438400268554688	0.0268656005859375	0.93231201171875	-0.16279200744628905	0.029250299453735352	0.9321749877929687	-0.18461300659179689	0.02201499938964844	0.95277197265625	-0.18993899536132813	-0.015838199615478516	1.0151400146484375
46	1.5333333333333334	-0.15576499938964844	-0.07793890380859375	0.9037529907226562	-0.16125799560546875	-0.06556320190429688	0.9293049926757813	-0.16673500061035157	-0.058402099609375	0.9598599853515625	-0.169	-0.03645299911499023	0.9892579956054688	-0.1125260009765625	-0.022541599273681642	0.895739013671875	-0.1332469940185547	-0.025803300857543947	0.8934010009765625	-0.15566700744628906	-0.029808399200439453	0.8996220092773437	-0.17781399536132814	-0.0352947998046875	0.931655029296875	-0.11026799774169922	-0.002407130002975464	0.89247900390625	-0.13162399291992188	-0.003849410057067871	0.8915789794921875	-0.1586230010986328	-0.007340869903564453	0.8992839965820313	-0.18425799560546874	-0.013518500328063964	0.9327470092773438	-0.12210700225830078	0.014249600410461426	0.9112830200195312	-0.14066299438476562	0.016153900146484376	0.9055759887695313	-0.166343994140625	0.014244000434875488	0.9086619873046875	-0.18466099548339843	0.005266089916229248	0.9412429809570313	-0.13089599609375	0.025753700256347656	0.928781005859375	-0.1476179962158203	0.030957500457763673	0.9245349731445313	-0.16589700317382813	0.0309773006439209	0.92881201171875	-0.18124400329589843	0.022552600860595705	0.9520499877929688	-0.1908560028076172	-0.015530900001525879	1.0157100219726563
47	1.5666666666666667	-0.15315199279785155	-0.07622109985351562	0.9039520263671875	-0.1592070007324219	-0.06445169830322266	0.9295549926757812	-0.16547999572753908	-0.057624000549316406	0.9603619995117187	-0.1686060028076172	-0.03596260070800781	0.9896010131835937	-0.1139729995727539	-0.020896900177001954	0.885531005859375	-0.13508900451660155	-0.02496579933166504	0.888801025390625	-0.15611799621582031	-0.029186399459838867	0.8989000244140625	-0.17591999816894532	-0.034567001342773435	0.9312730102539063	-0.11400900268554688	0.0006719040274620051	0.8800230102539063	-0.13539199829101561	-0.00207938003540039	0.885301025390625	-0.16070899963378907	-0.006318550109863281	0.8974030151367187	-0.182697998046875	-0.01301930046081543	0.932572021484375	-0.12298799896240234	0.01774810028076172	0.9006799926757812	-0.14376800537109374	0.017886600494384765	0.9001729736328125	-0.16770799255371094	0.014653599739074707	0.9077440185546874	-0.18522700500488282	0.005439730167388916	0.941823974609375	-0.13227200317382812	0.029808399200439453	0.9198820190429687	-0.14914900207519532	0.032563701629638675	0.9213410034179688	-0.16654600524902344	0.03145420074462891	0.9277620239257812	-0.17957000732421874	0.02273859977722168	0.9519290161132813	-0.19072799682617186	-0.01522070026397705	1.0161099853515625
48	1.6	-0.15287100219726563	-0.07468229675292969	0.9037470092773437	-0.15882099914550782	-0.06347219848632812	0.9294320068359375	-0.16491200256347657	-0.057095699310302735	0.9603809814453125	-0.1683090057373047	-0.03563629913330078	0.9897169799804687	-0.11610099792480469	-0.020028200149536133	0.8802760009765624	-0.13685299682617189	-0.024437999725341795	0.886197021484375	-0.15719500732421876	-0.028766899108886718	0.8981339721679688	-0.17560200500488282	-0.03423839950561523	0.9319119873046875	-0.11726000213623047	0.001577980041503906	0.8734429931640625	-0.1378800048828125	-0.001317010045051574	0.8822769775390625	-0.16194500732421874	-0.005809319972991943	0.8969769897460937	-0.18222500610351564	-0.012574399948120117	0.932739990234375	-0.12474400329589844	0.019115100860595702	0.894322998046875	-0.1454219970703125	0.01869610023498535	0.8974229736328125	-0.16837300109863282	0.014956000328063965	0.907385986328125	-0.18360299682617187	0.005820449829101563	0.941531982421875	-0.1333990020751953	0.03194350051879883	0.9149439697265624	-0.15077099609375	0.03364950180053711	0.9185819702148438	-0.16694200134277343	0.031620100021362306	0.927447021484375	-0.17901400756835936	0.022944599151611327	0.952593994140625	-0.19075199890136718	-0.01495009994506836	1.0161500244140624
49	1.6333333333333333	-0.15289199829101563	-0.07385150146484375	0.9036719970703125	-0.15894900512695312	-0.06305960083007812	0.9294229736328125	-0.16487199401855468	-0.05697809982299805	0.9603590087890626	-0.16800300598144532	-0.03596009826660156	0.9898880004882813	-0.11864700317382812	-0.0198976993560791	0.8763460083007812	-0.13885099792480468	-0.02427669906616211	0.8843709716796875	-0.15836000061035158	-0.02865439987182617	0.89752001953125	-0.17574200439453125	-0.03394089889526367	0.9313350219726563	-0.12058100128173828	0.001999199986457824	0.8695780029296875	-0.14036300659179687	-0.001222210049629211	0.8802509765625	-0.1631860046386719	-0.005715340137481689	0.8968330078125	-0.18215899658203125	-0.012651100158691406	0.9330070190429688	-0.1269729995727539	0.019928499221801756	0.8905009765625	-0.14714700317382812	0.018881200790405273	0.895593994140625	-0.16939700317382814	0.0149375	0.9071119995117187	-0.18455499267578124	0.005777100086212158	0.9424660034179687	-0.134802001953125	0.03289550018310547	0.9120469970703124	-0.1519239959716797	0.033867801666259766	0.9172540283203126	-0.16753799438476563	0.0314916000366211	0.9270269775390625	-0.1785610046386719	0.022841999053955078	0.9528300170898437	-0.1891009979248047	-0.014880000114440918	1.0160499877929687
